<svg xmlns="http://www.w3.org/2000/svg" width="381" height="80" viewBox="0 0 381 80">
<g>
<path d="M 351.10 74.85 C350.49,73.12 350.00,69.99 350.00,67.90 L 350.00 64.10 L 346.53 65.55 C341.87,67.50 341.33,67.42 338.26,64.35 C336.79,62.88 335.44,62.19 335.23,62.80 C335.03,63.40 333.96,65.05 332.86,66.45 C330.27,69.74 326.39,69.75 322.97,66.47 L 320.34 63.95 L 315.73 68.00 C309.28,73.68 302.82,76.35 295.50,76.35 C287.38,76.35 282.80,74.63 278.62,70.00 C267.57,57.77 273.63,37.14 289.94,31.47 C296.42,29.23 306.90,28.57 309.98,30.22 C313.59,32.14 314.76,36.19 312.64,39.42 C310.09,43.32 303.00,42.29 303.00,38.02 C303.00,34.15 299.31,34.69 294.23,39.32 C291.01,42.25 287.72,53.40 288.50,58.73 C289.22,63.67 293.45,68.50 297.91,69.48 C306.71,71.41 318.96,61.76 319.02,52.85 C319.04,48.52 320.06,47.97 325.53,49.36 L 330.50 50.62 L 331.00 55.56 L 331.50 60.50 L 333.21 56.94 C334.15,54.98 335.22,51.49 335.59,49.19 C336.18,45.49 336.57,45.00 338.91,45.00 C340.36,45.00 342.52,45.68 343.70,46.50 C346.34,48.35 348.38,54.18 347.47,57.23 C346.83,59.36 346.89,59.40 348.52,57.84 C349.74,56.67 350.33,54.29 350.51,49.84 C350.85,41.29 351.53,39.85 354.85,40.67 C356.31,41.02 358.42,41.91 359.54,42.64 C361.29,43.77 362.19,43.65 365.86,41.84 C369.60,39.99 370.63,39.87 374.03,40.89 C379.15,42.43 381.00,45.25 381.00,51.54 C381.00,55.82 380.55,57.06 378.16,59.35 C374.78,62.58 369.02,64.38 364.93,63.49 C362.03,62.85 362.00,62.88 362.00,67.34 C362.00,73.25 361.32,74.78 357.93,76.54 C353.74,78.70 352.32,78.35 351.10,74.85 ZM 369.41 51.37 C370.46,48.63 370.03,46.00 368.54,46.00 C366.58,46.00 362.00,52.86 362.00,55.78 L 362.00 58.10 L 365.41 55.50 C367.29,54.07 369.09,52.21 369.41,51.37 ZM 132.32 72.80 L 128.15 71.75 L 127.43 64.12 C126.57,54.95 128.15,3.51 129.33,2.33 C129.79,1.87 134.83,1.50 140.52,1.50 L 150.88 1.50 L 154.53 5.00 C156.75,7.13 160.12,12.61 163.16,19.00 C172.60,38.87 171.33,38.74 172.65,19.93 C173.28,10.89 173.85,2.71 173.90,1.75 C173.98,0.36 174.92,-0.00 178.47,-0.00 C187.85,-0.00 193.30,9.10 193.43,25.00 C193.51,36.03 191.16,61.51 189.64,66.00 C187.87,71.26 182.68,73.53 175.80,72.05 C165.91,69.93 160.85,63.93 153.88,46.05 C146.01,25.87 146.34,25.69 146.42,50.31 C146.47,62.14 146.18,72.14 145.80,72.53 C144.59,73.75 136.68,73.91 132.32,72.80 ZM 208.77 73.04 C196.72,71.79 195.12,68.50 197.39,49.67 C199.51,32.03 199.42,23.88 196.96,11.78 C195.83,6.27 195.19,1.47 195.54,1.13 C196.81,-0.15 231.09,-0.24 235.59,1.03 C241.78,2.76 245.00,6.26 245.00,11.27 L 245.00 15.27 L 233.67 14.57 C220.17,13.74 217.00,14.30 217.00,17.48 C217.00,23.60 218.12,25.72 221.95,26.87 C227.65,28.58 231.19,32.33 230.81,36.26 C230.51,39.44 230.40,39.51 225.00,39.79 C217.97,40.16 217.00,41.44 217.00,50.33 L 217.00 57.28 L 224.36 56.61 C228.58,56.23 232.83,56.36 234.33,56.93 C237.75,58.24 243.00,65.57 243.00,69.06 L 243.00 71.81 L 233.25 72.44 C227.89,72.78 221.70,73.21 219.50,73.40 C217.30,73.59 212.47,73.42 208.77,73.04 ZM 13.50 71.35 C10.75,70.52 7.96,69.31 7.30,68.67 C5.47,66.88 4.21,56.80 2.54,30.50 C0.59,-0.14 0.46,2.46 3.93,1.03 C11.88,-2.26 16.48,6.02 21.69,33.00 L 22.56 37.50 L 26.98 30.00 C31.82,21.79 40.00,3.88 40.00,1.50 C40.00,0.30 41.50,0.00 47.46,0.00 C53.59,0.00 55.10,0.32 55.88,1.77 C57.22,4.28 59.51,13.87 61.49,25.25 C62.45,30.75 63.60,34.75 64.13,34.42 C65.66,33.47 69.33,27.06 72.95,19.00 C79.83,3.70 84.40,-0.39 92.05,1.90 C94.22,2.55 96.00,3.68 96.00,4.40 C96.00,5.13 92.93,12.20 89.17,20.11 C81.98,35.27 77.09,47.30 71.74,63.00 L 68.50 72.50 L 64.00 72.76 C58.43,73.08 52.45,69.93 49.71,65.24 C48.57,63.29 47.04,56.88 45.89,49.28 C44.84,42.29 43.61,36.21 43.16,35.76 C42.71,35.31 38.67,42.72 34.18,52.22 C29.69,61.72 25.34,70.28 24.52,71.25 C22.73,73.34 20.18,73.37 13.50,71.35 ZM 111.12 72.00 C104.80,70.50 102.57,67.96 101.85,61.40 C100.61,50.01 99.81,2.55 100.85,1.07 C102.62,-1.48 109.28,1.37 113.94,6.67 C121.05,14.75 122.28,20.51 122.77,48.11 L 123.18 71.71 L 119.97 72.36 C116.26,73.10 115.69,73.08 111.12,72.00 Z" fill="rgba(255,255,255,1)"/>
</g>
</svg>